<?xml version="1.0" encoding="utf-8"?>
<!-- Generator: Adobe Illustrator 16.0.0, SVG Export Plug-In . SVG Version: 6.00 Build 0)  -->
<!DOCTYPE svg PUBLIC "-//W3C//DTD SVG 1.1//EN" "http://www.w3.org/Graphics/SVG/1.1/DTD/svg11.dtd">
<svg version="1.1" id="Layer_1" xmlns="http://www.w3.org/2000/svg" xmlns:xlink="http://www.w3.org/1999/xlink" x="0px" y="0px"
	 width="513.38px" height="172.98px" viewBox="0 0 513.38 172.98" enable-background="new 0 0 513.38 172.98" xml:space="preserve">
<path fill="#FFFFFF" d="M119.73,126.34c0,0,0.04-17.18,0.04-25.43v-22.4c0-8.67-0.45-13.98-1.34-15.9
	c-0.89-1.93-2.09-3.13-3.58-3.61c-1.49-0.49-4.09-0.73-7.8-0.73h-2.68v-4.15c11.79-1.08,20.93-2.68,27.42-4.79h2.19v51.58
	c0,7.89,0.02,25.43,0.02,25.43"/>
<path fill="#FFFFFF" d="M220.47,126.34v-9.63c-4.91,4.46-9.06,6.99-14.26,9.22c-5.2,2.23-10.58,3.35-16.15,3.35
	c-10.53,0-19.62-3.86-27.28-11.56c-7.65-7.71-11.47-17.04-11.47-28.01c0-12.04,3.91-21.78,11.72-29.22
	c7.82-7.44,17.12-11.16,27.92-11.16c5.5,0,10.7,0.9,15.6,2.71c4.9,1.8,9.54,4.51,13.91,8.13v-28.9c0-7.89-0.12-12.85-0.35-14.91
	c-0.23-2.04-1.18-3.62-2.83-4.7c-1.65-1.09-4.6-1.62-8.84-1.62h-2.08V5.88c8.01-0.18,16.79-1.45,26.33-3.8h2.09v99.46v24.8
	 M220.47,65.41c-4.37-3.44-8.76-6.01-13.16-7.73c-4.4-1.71-8.83-2.57-13.27-2.57c-7.48,0-13.73,2.62-18.73,7.86
	c-5,5.24-7.5,13.79-7.5,25.65c0,12.05,2.57,20.93,7.7,26.65c5.13,5.72,11.48,8.58,19.03,8.58c5.03,0,9.7-1.08,14.01-3.25
	c4.3-2.17,8.28-5.42,11.92-9.76V65.41z"/>
<path fill="#FFFFFF" d="M324.73,77.33h-56.74c-0.26,3.56-0.39,6.21-0.39,7.95c0,13.01,2.24,22.78,6.71,29.32
	c4.47,6.54,11.14,9.8,20.02,9.8c12.06,0,20.6-4.9,25.64-14.72h4.77c-2.12,6.15-6.33,10.95-12.62,14.41
	c-6.29,3.46-13.15,5.2-20.57,5.2c-6.89,0-13.4-1.58-19.53-4.75c-6.13-3.16-11.15-7.63-15.06-13.41c-3.91-5.78-5.86-12.8-5.86-21.05
	c0-11.68,3.78-21.39,11.33-29.13c7.55-7.73,16.99-11.61,28.32-11.61c10.67,0,18.92,2.96,24.75,8.85
	C321.32,64.08,324.4,70.47,324.73,77.33 M307.34,73.72c0.2-1.39,0.3-2.62,0.3-3.71c0-5.3-1.71-9.4-5.12-12.33
	c-3.41-2.92-7.6-4.38-12.57-4.38c-12.06,0-19.25,6.81-21.56,20.42H307.34z"/>
<path fill="#FFFFFF" d="M343.29,126.35c0,0,0.01-16.88,0.01-25.44V27.74c0-7.77-0.76-12.66-2.29-14.68
	c-1.52-2.02-5.23-3.02-11.13-3.02V5.88c4.04,0,8.79-0.42,14.26-1.27c5.46-0.84,9.23-1.69,11.28-2.53h2.19v98.82
	c0,7.89,0.02,25.43,0.02,25.43"/>
<path fill="#FFFFFF" d="M387.42,11.57c0-2.59,1.01-4.81,3.03-6.68c2.02-1.86,4.45-2.8,7.3-2.8c2.85,0,5.27,0.94,7.25,2.8
	c1.99,1.87,2.98,4.1,2.98,6.68c0,2.65-0.99,4.91-2.98,6.77c-1.98,1.87-4.4,2.8-7.25,2.8c-2.85,0-5.28-0.93-7.3-2.8
	C388.43,16.49,387.42,14.22,387.42,11.57"/>
<path fill="#FFFFFF" d="M426.63,89.17c0-11.32,4.18-20.79,12.52-28.41c8.35-7.62,18.62-11.43,30.8-11.43
	c12.26,0,22.56,3.83,30.91,11.47c8.34,7.65,12.51,17.1,12.51,28.36c0,12.46-4.24,22.27-12.71,29.4
	c-8.48,7.14-18.71,10.71-30.71,10.71c-11.99,0-22.21-3.63-30.65-10.89C430.86,111.14,426.63,101.39,426.63,89.17 M443.13,89.62
	c0,13.13,2.35,22.32,7.05,27.6c4.7,5.27,11.29,7.91,19.77,7.91c8.68,0,15.32-2.64,19.93-7.91c4.6-5.27,6.9-14.46,6.9-27.6
	c0-13.01-2.29-22.28-6.86-27.82c-4.57-5.54-11.22-8.31-19.97-8.31c-8.68,0-15.32,2.75-19.92,8.27
	C445.43,67.26,443.13,76.55,443.13,89.62"/>
<path fill="#FFFFFF" d="M16.82,169.44c8.21-1.49,14.92-4.99,20.09-13.56c3.53-5.86,7.88-18.95,13.59-38.97l16.78-58.64H49.29
	l1.67-6.08c7.53,0,12.89-1.14,16.1-3.42c2.51-1.9,6.22-8.46,9.99-15.69c6.97-13.18,15.33-22.49,25.09-27.94
	c5.86-3.42,10.51-5.19,16.09-5.13c5.32,0.05,8.95,1.26,11.53,2.6c3.77,1.96,5.42,5.02,5.64,8.46c0.32,5.31-3.99,10.02-10.29,10.05
	c-4.97,0.02-8.58-3.16-9.82-6.63c-0.42-1.18-0.63-3.29-0.19-5.06c0.44-1.76,1.15-2.71,1.22-2.81c1.1-1.64,2.69-2.8,2.69-2.8
	c-7.2,0.25-15.69,4.81-21.26,13.68c-4.04,6.34-9.08,19.23-13.96,34.69h15.06l-1.88,6.08H82.11l-13.85,50.09
	c-4.59,16.73-11.08,30.92-19.44,42.58c-10.46,14.7-21.82,22.05-34.09,22.05c-3.21,0-6.15-0.85-8.99-2.28
	c-3.42-1.72-5.28-4.58-5.67-7.74c-0.3-2.46,0.4-5.19,2.06-7.01c1.32-1.46,3.59-3.67,8.35-3.75c4.92-0.08,9.65,3.83,10.09,8.65
	c0.23,2.58-0.56,4.8-2.25,6.87"/>
<path fill="#FFFFFF" d="M392.33,126.35c0,0,0.04-17.18,0.04-25.44v-22.4c0-8.67-0.45-13.97-1.34-15.9c-0.9-1.93-2.08-3.13-3.58-3.62
	c-1.49-0.48-4.09-0.72-7.8-0.72h-2.68v-4.16c11.79-1.08,20.94-2.68,27.43-4.79h2.19v51.57c0,7.89,0.02,25.44,0.02,25.44"/>
</svg>
